<svg xmlns="http://www.w3.org/2000/svg" width="1840" height="236" viewBox="0 0 1840 236">
  <defs>
    <style>
      .cls-1 {
        fill: #f11;
        fill-rule: evenodd;
      }
    </style>
  </defs>
  <path id="galeria_cibernétika" data-name="galeria cibernétika" class="cls-1" d="M59.908,154.66c-15.575,0-27.013-13.629-27.013-35.045,0-24.579,9.248-36.5,27.013-36.5,18.009,0,27.013,12.412,27.013,38.451C86.921,141.761,75.24,154.66,59.908,154.66Zm26.04,27.5c0,15.818-13.385,25.8-30.177,25.8-15.819,0-26.283-8.517-26.283-22.876H0.041c0,30.907,24.58,50.133,57.921,50.133s59.624-19.469,59.624-55.487V58.774H85.948V73.62C78.4,61.451,67.452,55.611,52.364,55.611c-28.96,0-52.323,25.066-52.323,62.3,0,31.394,13.628,61.571,53.053,61.571,15.575,0,28.474-6.328,32.854-17.036V182.16ZM203.987,133c-0.243,14.115-12.411,26.04-28.717,26.04-9.977,0-15.331-4.38-15.331-13.385,0-10.221,5.84-15.332,23.849-18.739,11.682-2.19,17.279-3.894,20.443-7.057Zm31.881,45.509V102.823c0-30.177-13.142-47.212-51.106-47.212-38.452,0-52.08,17.279-52.567,42.1h29.447c1.46-10.708,7.3-17.766,21.66-17.766,12.411,0,20.2,4.624,20.2,12.412,0,8.274-4.381,11.438-20.2,13.628-31.881,4.38-55,8.274-55,42.832,0,19.469,12.655,32.854,39.912,32.854,16.062,0,28.717-5.6,36.261-13.872a46.644,46.644,0,0,0,1.947,10.708h29.447Zm45.516,0V14.969H249.747v163.54h31.637Zm43.322-71.549c1.217-16.548,11.681-26.283,24.336-26.283,12.412,0,24.093,8.518,24.58,26.283H324.706Zm81.527,19.956c0-47.456-19.469-71.305-56.217-71.305S292.1,79.46,292.1,116.452c0,43.318,19.956,65.221,59.867,65.221,25.554,0,45.266-13.872,52.567-38.451H371.918c-2.19,8.274-11.194,13.385-21.416,13.385-15.575,0-25.8-11.682-26.77-29.691h82.5Zm42.6,51.593v-62.3c0-19.226,9.491-28.96,28.96-28.96a53.187,53.187,0,0,1,8.761.73V55.611h-4.137c-12.9,0-25.066,1.46-35.531,17.522V58.774H417.191V178.509h31.638Zm78.855,0V58.774H496.046V178.509h31.638Zm0-134.093V14.969H496.046V44.416h31.638ZM614.567,133c-0.243,14.115-12.411,26.04-28.717,26.04-9.978,0-15.332-4.38-15.332-13.385,0-10.221,5.841-15.332,23.85-18.739,11.681-2.19,17.279-3.894,20.443-7.057Zm31.881,45.509V102.823c0-30.177-13.142-47.212-51.107-47.212-38.451,0-52.079,17.279-52.566,42.1h29.447c1.46-10.708,7.3-17.766,21.659-17.766,12.412,0,20.2,4.624,20.2,12.412,0,8.274-4.38,11.438-20.2,13.628-31.88,4.38-55,8.274-55,42.832,0,19.469,12.655,32.854,39.912,32.854,16.062,0,28.717-5.6,36.261-13.872A46.536,46.536,0,0,0,617,178.509h29.447Zm194.215-76.9a46.764,46.764,0,0,0,.244-5.84c0-24.823-17.523-40.155-46.483-40.155-40.155,0-68.385,24.823-68.385,76.172,0,32.855,17.522,49.89,45.265,49.89,28.961,0,54.757-18.739,63.032-46.482H802.455c-3.407,12.9-14.358,19.955-26.77,19.955-10.221,0-17.766-6.814-17.766-27.986,0-32.855,14.846-45.266,31.638-45.266,10.951,0,19.469,4.38,19.469,16.305,0,1.217-.243,2.191-0.243,3.407h31.88Zm27.751,76.9L889.586,58.774H857.949L836.776,178.509h31.638ZM892.02,44.416l5.111-29.447H865.493l-5.11,29.447H892.02Zm51.353,111.46c-12.9,0-21.416-9.247-21.416-27.5,0-25.066,10.708-45.752,34.071-45.752,15.088,0,22.146,6.327,22.146,26.283C978.174,136.651,962.112,155.876,943.373,155.876ZM913.2,178.509l2.92-14.6c5.354,12.169,15.575,17.766,30.177,17.766,35.531,0,64.737-30.907,64.737-77.876,0-28.474-13.874-48.186-39.914-48.186-14.845,0-27.5,6.084-38.938,18.739l10.464-59.381h-31.15l-28.717,163.54H913.2Zm217.574-51.593a139.213,139.213,0,0,0,2.19-23.363c0-31.88-15.57-47.942-45.75-47.942-42.83,0-70.58,30.42-70.58,76.659,0,32.368,16.8,49.4,50.38,49.4,25.55,0,47.7-13.872,59.38-38.451h-32.61c-3.65,8.274-13.63,13.385-23.85,13.385-13.87,0-21.9-7.058-21.9-24.093v-5.6h82.74Zm-79.09-19.956c4.62-14.845,14.11-26.283,30.17-26.283,10.71,0,20.45,3.65,20.45,18.982a39.084,39.084,0,0,1-.49,7.3h-50.13Zm112.68,71.549,10.95-62.3c3.41-19.226,14.61-28.96,34.07-28.96a53.3,53.3,0,0,1,8.77.73l5.59-32.367h-4.13c-12.9,0-25.31,1.46-38.7,17.522l2.68-14.359H1153.9l-21.18,119.735h31.64Zm155.03,0,14.6-82.987a61.175,61.175,0,0,0,.73-9.248c0-19.956-13.38-30.664-33.34-30.664-19.22,0-32.61,7.3-42.34,20.686l3.16-17.522h-30.18l-21.17,119.735h31.64l12.16-68.628c3.17-18.253,12.9-27.5,29.45-27.5,11.93,0,17.28,2.677,17.28,13.385a55.161,55.161,0,0,1-.97,10.221l-12.9,72.522h31.88Zm134.34-51.593a139.213,139.213,0,0,0,2.19-23.363c0-31.88-15.57-47.942-45.75-47.942-42.83,0-70.57,30.42-70.57,76.659,0,32.368,16.79,49.4,50.37,49.4,25.56,0,47.7-13.872,59.38-38.451h-32.61c-3.65,8.274-13.63,13.385-23.85,13.385-13.87,0-21.9-7.058-21.9-24.093v-5.6h82.74Zm-79.09-19.956c4.62-14.845,14.12-26.283,30.18-26.283,10.71,0,20.44,3.65,20.44,18.982a39.084,39.084,0,0,1-.49,7.3h-50.13Zm79.58-86.15-7.79-19.956L1390.7,30.3l5.36,13.385Zm112.69,78.85h-29.45l-5.36,31.151c-2.67,14.845-10.46,23.363-22.63,23.363-10.22,0-15.09-3.894-15.09-14.359a48.262,48.262,0,0,1,.98-9.491l8.76-49.159h66.19l3.9-22.389h-66.2l5.6-32.367h-31.15l-18.74,107.08a62.254,62.254,0,0,0-.97,11.438c0,20.686,11.68,36.748,41.37,36.748,33.83,0,52.08-22.633,56.7-47.943Zm31.4,78.85,21.17-119.735h-31.64l-21.17,119.735h31.64Zm23.6-134.093,5.11-29.447h-31.63l-5.11,29.447h31.63Zm99.78,134.093-25.79-75.686,47.94-44.049h-39.67l-45.99,43.319,15.09-87.124h-31.89l-28.71,163.54h31.88l6.81-37.964,18.74-16.793,17.04,54.757h34.55ZM1801.04,133c-2.68,14.115-17.04,26.04-32.37,26.04-8.27,0-14.11-3.164-14.11-10.708,0-11.195,4.62-17.279,27.25-21.416,12.17-2.19,18.01-3.894,21.66-7.057Zm23.85,45.509,13.38-75.686a91.321,91.321,0,0,0,1.22-13.628c0-21.659-12.17-33.584-44.05-33.584-38.45,0-55,17.279-59.87,42.1h29.45c3.16-10.708,10.22-17.766,24.58-17.766,11.44,0,18.25,2.19,18.25,12.412,0,6.571-.97,10.708-22.63,13.628-38.21,5.111-63.28,12.9-63.28,48.429,0,16.306,10.96,27.257,34.81,27.257,16.06,0,29.69-5.6,38.69-13.872a48.288,48.288,0,0,0-.49,5.6,30.693,30.693,0,0,0,.49,5.11h29.45Z"/>
</svg>
