<svg xmlns="http://www.w3.org/2000/svg" width="512" height="512" viewBox="0 0 512 512">
  <defs>
    <style>
      .cls-1 {
        fill: #f11;
        fill-rule: evenodd;
      }
    </style>
  </defs>
  <path id="Forma_1" data-name="Forma 1" class="cls-1" d="M254.387,83.855h2.458q0.613-1.843,1.229-3.687H259.3V77.71l2.458-1.229V74.023l2.457-1.229V70.337l6.145-4.916V62.963l9.831-8.6,3.687-4.916h2.458l3.687-4.916,3.687-1.229,1.228-2.458H297.4q0.615-1.229,1.229-2.458l3.687-1.229V35.927l7.374-2.458V32.24h2.457V31.011H314.6V29.782l7.374-2.458V26.1h3.687V24.867h3.686V23.638h3.687V22.409h3.687V21.18h4.916V19.951h4.915V18.722h7.374V17.493h12.289V16.264l28.265,1.229v1.229h7.374v1.229h4.915V21.18h4.916v1.229h3.687v1.229h3.687v1.229h3.686V26.1h2.458v1.229h3.687v1.229l7.374,2.458V32.24h2.457v1.229l4.916,1.229,1.229,2.458h2.458l1.229,2.458h2.458q0.613,1.229,1.229,2.458c4.368,2.922,8.267,2.772,9.831,8.6-2.753-.37-3.238-0.1-4.916-1.229V48.216H454.7l-1.228-2.458-4.916-1.229V43.3l-4.916-1.229V40.843h-3.687V39.614H437.5V38.385H433.81V37.156h-4.916V35.927h-4.916V34.7h-6.144V33.469H404.316V32.24l-8.6,1.229c-11.29.492-20.98,1.53-29.494,4.916v1.229h-3.687v1.229L355.159,43.3v1.229H352.7v1.229h-2.458v1.229h-2.458v1.229h-2.458q-0.613,1.229-1.229,2.458h-2.457q-1.23,1.843-2.458,3.687h-2.458l-4.916,6.145h-2.458l-3.686,4.916h-1.229v2.458l-6.145,4.916v2.458L314.6,77.71q-0.613,2.458-1.229,4.916l-2.458,1.229-2.457,7.374h-1.229L304.773,98.6h-1.229l-3.687,15.976h-1.229c-1.323,4.32-2.861,33.72-1.229,39.325l7.374,25.808H306q1.228,3.685,2.458,7.373l-7.374,2.458q-0.613,1.228-1.229,2.458l-4.916,1.229-1.228,2.458-7.374,2.458L285.11,200.6h-2.458v1.229l-7.373,2.458v-2.458a10,10,0,0,1-4.916-2.457v-1.229c-2.67-1.728-14.27-5.286-19.663-3.687v1.229h-4.915v1.229h-2.458v1.229h-2.458l-4.916,6.144c-2.351.667-1.69-.756-2.458-1.229l-7.373-2.458q-0.615-1.229-1.229-2.457l-7.374-2.458q-0.613-1.229-1.229-2.458L211.375,192c-3.286-1.82-3.891-3.794-8.6-4.916l3.687-11.06h1.229v-2.458h1.229q0.613-4.3,1.229-8.6h1.229c2.675-8.03,2.458-17.865,2.458-28.266V121.951H212.6v-7.373h-1.229v-4.916h-1.229v-3.687h-1.229v-3.686h-1.229V98.6h-1.229L204,91.228h-1.229V88.771h-1.229L199.086,81.4l-2.458-1.229V77.71l-3.687-2.458V72.795l-4.916-3.687V66.65l-2.458-1.229-3.686-4.916h-2.458l-4.916-6.145h-2.458q-1.229-1.843-2.458-3.687h-2.457q-0.615-1.229-1.229-2.458h-2.458V46.987h-2.458V45.758h-2.458V44.529h-2.458V43.3h-2.458V42.071L148.7,40.843V39.614l-7.374-1.229V37.156h-3.687V35.927h-4.915V34.7h-6.145V33.469H111.832V32.24h-4.916v1.229H93.4L67.591,40.843v1.229l-7.374,2.458v1.229H57.759c-3.28,1.8-3.884,3.83-8.6,4.916,0.84-3.064.638-2,2.458-3.687V45.758h2.458l2.458-3.687h2.458l1.229-2.458L63.9,38.385V37.156h2.458L67.591,34.7l4.916-1.229V32.24h2.458V31.011l7.374-2.458V27.324h3.687V26.1h2.458V24.867h3.687V23.638h3.687V22.409h3.687V21.18h4.915V19.951l12.29-1.229V17.493l28.265-1.229v1.229H157.3v1.229h7.374v1.229h4.915V21.18h4.916v1.229h3.687v1.229h3.687v1.229h3.686V26.1h3.687v1.229l7.374,2.458v1.229h2.458V32.24h2.457v1.229l7.374,2.458q0.613,1.229,1.229,2.458H212.6q0.613,1.229,1.229,2.458h2.457q1.23,1.843,2.458,3.687h2.458l3.687,4.916h2.458l9.831,11.06,4.916,3.687V66.65l4.916,3.687v2.458l2.457,1.229v2.458l2.458,1.229v2.458h1.229Q253.773,82.011,254.387,83.855Zm217.519,78.651-20.891-6.145h-1.229v-3.687h1.229q0.613-4.3,1.229-8.6h1.229v-4.916c2.17-6.4,4.753-13.753,6.144-20.891-4.365.88-5.537,3.212-8.6,4.915l-4.916,1.229-1.229,2.458-7.373,2.458q-0.615,1.229-1.229,2.458l-7.374,2.458-1.229,2.457h-2.458v1.229h-2.458q-0.614,1.23-1.228,2.458l-7.374,2.458-1.229,2.458-7.373,2.458q-0.615,1.229-1.229,2.458l-4.916,1.229-1.229,2.457-7.374,2.458-1.228,2.458-7.374,2.458-1.229,2.458h-2.458c-2.927,1.654-4.781,3.88-8.6,4.915,0.887,4.427,3.432,8.536,4.915,12.29q0.615,3.685,1.229,7.373h1.229v4.916c3.594,10.862,3.5,23.282,3.687,38.1-9.02-1.445-16.28-5.3-23.349-8.6,0.266-30.868-10.517-49.813-23.35-67.591l-8.6-7.373-2.458-3.687h-2.458l-3.687-4.916L306,133.012V121.951c1.229-1.356,3.236-11.032,3.687-13.518h1.228c2.754,3.143,7.48,3.765,11.061,6.145v1.229l3.687,1.229q0.613,1.228,1.228,2.458h2.458q0.615,1.228,1.229,2.457h2.458l4.916,6.145h2.458q0.614,1.228,1.229,2.458l4.915,3.687q0.615,1.842,1.229,3.686l7.374,6.145v2.458h1.229l1.229,2.458h2.457c2.04-2.936.917-.769,3.687-2.458V145.3h2.458q0.615-1.228,1.229-2.458h2.458v-1.229h2.458v-1.229h2.457v-1.229h2.458q0.615-1.229,1.229-2.458h2.458V135.47h2.458q0.615-1.23,1.229-2.458l7.373-2.458q0.615-1.228,1.229-2.458l4.916-1.229q0.615-1.229,1.229-2.458l7.373-2.458q0.615-1.228,1.229-2.457l7.374-2.458q0.615-1.228,1.229-2.458l7.373-2.458,1.229-2.458,4.916-1.229q0.615-1.229,1.229-2.458l7.373-2.457q0.615-1.23,1.229-2.458h2.458V99.831c2.474-1.4,3-.216,4.916-2.458H446.1V96.144c-7.993-.493-15.607-3.91-22.121-6.145h-4.915V88.771l-8.6-1.229V86.313c-1.4-1.4-.489,0-1.229-2.458,3.271-3.394,4.221-14.688,6.145-19.663L492.8,85.084Q482.353,123.792,471.906,162.506Zm-390.8-93.4,4.916,22.121c-6.679.482-16.5,3.782-22.121,6.145,1.4,1.4,0,.49,2.458,1.229,2.253,2.562,5.466,3.14,8.6,4.916v1.228h2.458v1.229H79.88l1.229,2.458,4.916,1.229c3.087,1.707,4.262,3.927,8.6,4.916C96.266,106.125,104.2,97.095,108.145,90c2.47,0.7,1.063-.147,2.458,1.229,6.7,1.379,10.689,6.855,17.205,8.6-0.428,4.418-10.776,22.371-13.518,24.578,0.7,2.47-.148,1.063,1.229,2.458,1.78,2.085,6.18,4.772,8.6,6.145h2.458q0.615,1.228,1.229,2.458l7.374,2.457q0.614,1.23,1.228,2.458l7.374,2.458q0.615,1.229,1.229,2.458h2.458v1.229h2.458v1.229l3.686,1.229,6.145-8.6,2.458-1.229V136.7l6.144-4.915q0.615-1.228,1.229-2.458h2.458l4.916-6.145h2.458q1.228-1.842,2.458-3.686h2.457l1.229-2.458,15.976-8.6v2.458c3.185,3.37,3.76,15.149,3.687,22.121-21.587,10.247-37.607,32.408-46.7,55.3q-2.457,10.445-4.916,20.892c-1.306,4.6,1.375,10.539-1.229,13.518-3.73,4.241-15.345,7.325-22.12,8.6-0.273-14.377.27-27.783,3.687-38.1v-4.916h1.229q0.614-3.685,1.228-7.373c1.5-3.781,3.907-7.865,4.916-12.29-3.77-.912-5.734-3.278-8.6-4.915h-2.458q-0.615-1.229-1.229-2.458l-7.374-2.458q-0.613-1.228-1.229-2.458l-4.915-1.229q-0.615-1.229-1.229-2.458h-2.458v-1.228h-2.458v-1.229h-2.458q-0.613-1.23-1.229-2.458L102,146.53v1.229c-2.083,1.773-4.776,6.186-6.145,8.6v2.458L93.4,160.048l-1.229,4.916H90.94v2.458l-2.458,1.228-1.229,3.687c-2.5-1.245-5.02-3.575-7.374-4.915H77.422l-1.229-2.458H73.735v-1.229c-1.566-.887-5.3-1.048-6.145-2.458v-2.458c2.57-2.234,3.145-5.474,4.916-8.6h1.229v-2.458h1.229V145.3l2.458-1.229v-2.458h1.229v-2.458l2.458-1.229v-3.686l-3.687-1.229v-1.229H74.964l-1.229-2.458-7.374-2.458-1.229-2.458-7.374-2.458-1.229-2.457-4.916-1.229,6.145,23.349L34.41,146.53l-2.458-13.518H30.723V128.1H29.494V123.18H28.265v-4.915H27.036v-3.687H25.807v-4.916L18.434,85.084h2.458V83.855l8.6-1.229V81.4H34.41V80.168h4.916V78.939h3.687V77.71h4.916V76.481h4.916V75.252h4.916V74.023l8.6-1.229C71.057,71.194,74.5,69.366,81.109,69.108Zm423.978,52.843h2.458l3.687,22.121c2.219,7.945-.883,24.083-2.458,29.494q-0.615,6.144-1.229,12.289h-1.229v4.916h-1.229v3.687h-1.229v3.687h-1.229v3.686H501.4v3.687h-1.229q-0.615,2.459-1.229,4.916h-1.229v2.458h-1.229v2.458h-1.229v2.457h-1.229v2.458H492.8v2.458h-1.229v2.458l-2.458,1.229v2.458l-2.458,1.229v2.457q-1.842,1.23-3.686,2.458v2.458l-4.916,3.687v2.458l-8.6,7.373-4.916,6.145h-2.458l-3.687,4.916H455.93l-2.457,3.686h-2.458l-1.229,2.458-3.687,1.229v1.229l-7.374,2.458-1.228,2.458h-2.458V276.8h-2.458v1.229h-3.687v1.229l-4.916,1.228v1.229h-3.686v1.229h-3.687v1.229h-3.687V285.4H408v1.229h-4.915v1.229h-7.374v1.229c-5.48,1.583-17.391-.562-20.892,2.458,4.84,4.188,5.959,13.024,8.6,19.663h1.229v3.686c5.27,13.451,7.374,24.922,7.373,44.242v17.2H390.8v7.374q-3.686,12.9-7.373,25.807H382.2q-0.615,2.459-1.229,4.916h-1.229q-0.614,3.072-1.229,6.145l-2.458,1.229-2.457,7.373-2.458,1.229v2.458h-1.229q-0.615,1.843-1.229,3.687l-2.458,1.229v2.457l-3.687,2.458v2.458l-11.06,9.831-8.6,9.832h-2.457q-1.23,1.843-2.458,3.687H335.5l-2.458,3.686H330.58q-0.613,1.23-1.229,2.458l-4.915,1.229q-0.615,1.229-1.229,2.458l-4.916,1.229V480.8h-2.458v1.229h-2.458v1.229h-3.686v1.229L297.4,488.17v-2.457c4.3-.907,6.7-3.148,9.832-4.916h2.458l1.228-2.458h2.458q0.615-1.228,1.229-2.458h2.458l2.458-3.687h2.458l4.915-6.144,11.061-9.832v-2.457l3.687-2.458v-2.458l2.457-1.229q0.615-2.457,1.229-4.916l2.458-1.229q0.615-2.457,1.229-4.915h1.229q0.615-2.459,1.229-4.916H352.7v-3.687h1.229v-3.687h1.229V420.58h1.229v-3.687h1.229v-4.916c2.673-8.335,4.066-25.872,1.228-35.639v-7.373h-1.228v-4.916h-1.229v-4.915c-13.555-37.8-46.913-71.641-95.856-73.736V248.53c11.612-2.168,18.84-10.446,22.12-20.891,1.912-6.088-2.34-12.872,0-15.976,2.25-2.564,5.467-3.141,8.6-4.916v-1.229h2.458v-1.229h2.457c5.624-3.534,10.043-8.871,18.434-9.831v2.458c3.706,2.43.531,1.083,2.458,3.686l4.916,3.687v2.458l8.6,7.374,2.458,3.686H335.5l3.687,4.916h2.458l1.228,2.458,4.916,1.229q0.615,1.229,1.229,2.458l23.35,9.831,11.06,1.229c16.494,4.946,38.188,1.66,51.615-3.687h3.686v-1.229h2.458v-1.229l11.061-3.686q0.613-1.23,1.229-2.458l4.915-1.229q0.615-1.228,1.229-2.458h2.458l2.458-3.687h2.458l4.915-6.144L484.2,203.06V200.6l3.686-2.457v-2.458l2.458-1.229V192l2.458-1.229q1.229-3.687,2.458-7.373h1.229V180.94h1.229v-3.687h1.229V174.8h1.229v-3.687H501.4v-3.686h1.228v-3.687h1.229q0.615-7.373,1.229-14.747h1.229C508.485,141.274,505.408,128.434,505.087,121.951ZM3.687,123.18H6.145c-3.908,20.446,1.2,40.086,7.374,54.073v3.687h1.229l1.229,4.915H17.2v2.458l2.458,1.229,1.229,4.916,2.458,1.229v2.458l3.687,2.457c13.926,19.582,32.287,31.334,57.759,39.326H90.94c18.554,5.491,40.852.91,55.3-4.916h3.687v-1.229l7.373-2.457V230.1h2.458v-1.229l4.916-1.229q0.614-1.229,1.229-2.458h2.457l2.458-3.687h2.458l2.458-3.687h2.458q1.229-1.842,2.458-3.686,4.914-4.3,9.831-8.6V203.06l2.458-1.229q0.613-1.842,1.229-3.686H195.4q0.613-1.844,1.229-3.687c8.264,0.606,12.98,6.367,18.434,9.831l7.373,2.458q0.615,1.228,1.229,2.458c4.207,2.729,5.3-.831,6.145,6.145-1.329,1.441-2.317,9-1.229,12.289h1.229v3.687c4.522,10.291,11.737,14.025,22.12,18.433-2.324,6.51.521,32.031-1.229,34.41-3.833,3.44-18.58,2.775-24.578,4.916l-23.35,9.831q-0.613,1.228-1.229,2.458h-2.457V302.6l-3.687,1.229-1.229,2.458h-2.458l-4.916,6.144h-2.458l-4.915,6.145-2.458,1.229v2.458l-4.916,3.687q-0.614,1.842-1.229,3.686l-2.458,1.229q-0.613,2.459-1.228,4.916l-2.458,1.229q-0.615,2.457-1.229,4.916h-1.229L159.76,349.3h-1.229v3.687H157.3v2.458h-1.229v3.687h-1.229q-0.613,4.914-1.229,9.831h-1.229v7.373h-1.228c-1.726,6.116-.042,23.906,1.228,28.266v7.373h1.229v4.916h1.229v3.687h1.229v3.686H157.3v3.687h1.229v3.687h1.229q0.615,2.457,1.229,4.916h1.229q0.614,2.457,1.229,4.915l2.458,1.229q0.613,2.459,1.229,4.916l2.457,1.229V451.3l3.687,2.458v2.457l11.06,9.832,4.916,6.144h2.458l2.458,3.687h2.458l1.229,2.458h2.457l1.229,2.458H204c3.133,1.765,5.528,4.009,9.832,4.916v2.457l-12.29-3.686v-1.229h-3.686v-1.229H195.4V480.8h-2.458v-1.229h-2.458q-0.615-1.228-1.229-2.458l-4.916-1.229q-0.613-1.228-1.228-2.458l-4.916-1.229q-0.615-1.228-1.229-2.457l-3.687-1.229-2.458-3.687c-23.01-16.365-37.709-40.907-47.928-70.049q-1.228-9.216-2.458-18.434h-1.228c-1.667-5.913-.02-31.35,1.228-35.638v-7.374q3.687-12.9,7.374-25.807l8.6-17.2H124.121c-3.031-2.6-11.479-1.03-15.976-2.458v-1.229H103.23V285.4H98.314v-1.229H94.627V282.94H90.94v-1.229H88.482v-1.229H84.8v-1.228H82.338v-1.229l-11.06-3.687-1.229-2.458-4.916-1.229v-1.229l-3.687-1.229-1.229-2.458H57.759L55.3,262.049H52.844l-3.687-4.916H46.7l-4.916-6.145-8.6-7.373v-2.458l-4.916-3.687v-2.458l-3.687-2.458V230.1l-2.458-1.229-1.229-4.916-2.458-1.229v-2.458H17.2v-2.458H15.976V215.35H14.747v-2.458H13.518v-2.458H12.289l-1.229-4.916H9.831v-3.687H8.6v-3.686H7.374v-3.687H6.145v-3.687H4.916v-4.916H3.687V180.94H2.458v-7.374H1.229V161.277H0V145.3ZM335.5,403.375v23.349H267.9c-2.064,5.628-1.229,15.755-1.229,23.35v45.47c-7.52.119-17.814,0.844-23.349-1.229,0.594-1.7,1.633-2.036,1.229-4.916h-1.229V488.17c2.32-17.579,1.3-40.582,1.229-60.217-5.628-2.064-15.755-1.229-23.35-1.229h-45.47V403.375h67.591c1.737-4.724,1.229-13.056,1.229-19.663V348.073c-1.4-1.037-.179.156-1.229-1.229l-25.808-4.915V340.7h-3.686v-1.229h-3.687v-1.229h-2.458v-1.229l-11.06-3.687q-0.615-1.229-1.229-2.458c-4.5-2.85-8.287-1.406-9.832-7.373,6.468-3.779,10.877-12.379,19.663-13.518,3.392,3.95,10.519,5.2,15.976,7.373v1.229c10.726,4.234,23.231,4.929,38.1,4.916h11.06v-1.229h7.374v-1.229h4.915v-1.229h3.687v-1.229h3.687V317.35h3.687v-1.229h2.457v-1.229h2.458c3.665-1.943,5.6-4.271,11.061-4.915,1.928,3,1.378.748,3.686,2.457l3.687,4.916h2.458c2.134,1.537,3.15,4.412,6.145,6.145v2.458c-1.546.783-1.75,2.006-2.458,2.457h-2.458v1.229h-2.458l-1.229,2.458-27.036,11.061H285.11v1.228h-6.145v1.229c-5.03,1.536-7.719-.92-11.06,2.458-2.227,2.516-1.228,10.2-1.229,14.747v39.326c5.628,2.064,15.755,1.229,23.35,1.229H335.5Z"/>
</svg>
